HIERARCHY
ROOT Hips
{
	OFFSET 0.00000 0.00000 0.00000
	CHANNELS 6 Xposition Yposition Zposition Zrotation Yrotation Xrotation 
	JOINT LHipJoint
	{
		OFFSET 0 0 0
		CHANNELS 3 Zrotation Yrotation Xrotation
		JOINT LeftUpLeg
		{
			OFFSET 1.92384 -1.64427 0.83032
			CHANNELS 3 Zrotation Yrotation Xrotation
			JOINT LeftLeg
			{
				OFFSET 2.52872 -6.94761 0.00000
				CHANNELS 3 Zrotation Yrotation Xrotation
				JOINT LeftFoot
				{
					OFFSET 2.51827 -6.91890 0.00000
					CHANNELS 3 Zrotation Yrotation Xrotation
					JOINT LeftToeBase
					{
						OFFSET 0.22757 -0.62524 2.06528
						CHANNELS 3 Zrotation Yrotation Xrotation
						End Site
						{
							OFFSET 0.00000 -0.00000 1.08218
						}
					}
				}
			}
		}
	}
	JOINT RHipJoint
	{
		OFFSET 0 0 0
		CHANNELS 3 Zrotation Yrotation Xrotation
		JOINT RightUpLeg
		{
			OFFSET -2.09517 -1.64427 0.83032
			CHANNELS 3 Zrotation Yrotation Xrotation
			JOINT RightLeg
			{
				OFFSET -2.55173 -7.01082 0.00000
				CHANNELS 3 Zrotation Yrotation Xrotation
				JOINT RightFoot
				{
					OFFSET -2.50265 -6.87598 0.00000
					CHANNELS 3 Zrotation Yrotation Xrotation
					JOINT RightToeBase
					{
						OFFSET -0.22612 -0.62126 1.98677
						CHANNELS 3 Zrotation Yrotation Xrotation
						End Site
						{
							OFFSET -0.00000 -0.00000 1.04433
						}
					}
				}
			}
		}
	}
	JOINT LowerBack
	{
		OFFSET 0 0 0
		CHANNELS 3 Zrotation Yrotation Xrotation
		JOINT Spine
		{
			OFFSET 0.02839 1.68926 0.31690
			CHANNELS 3 Zrotation Yrotation Xrotation
			JOINT Spine1
			{
				OFFSET -0.01522 1.70183 0.21192
				CHANNELS 3 Zrotation Yrotation Xrotation
				JOINT Neck
				{
					OFFSET 0 0 0
					CHANNELS 3 Zrotation Yrotation Xrotation
					JOINT Neck1
					{
						OFFSET -0.04523 1.88988 0.10630
						CHANNELS 3 Zrotation Yrotation Xrotation
						JOINT Head
						{
							OFFSET 0.05172 1.78070 -0.56858
							CHANNELS 3 Zrotation Yrotation Xrotation
							End Site
							{
								OFFSET 0.01532 1.90392 -0.20434
							}
						}
					}
				}
				JOINT LeftShoulder
				{
					OFFSET 0 0 0
					CHANNELS 3 Zrotation Yrotation Xrotation
					JOINT LeftArm
					{
						OFFSET 3.25522 0.75486 0.22086
						CHANNELS 3 Zrotation Yrotation Xrotation
						JOINT LeftForeArm
						{
							OFFSET 4.85645 -0.00000 0.00000
							CHANNELS 3 Zrotation Yrotation Xrotation
							JOINT LeftHand
							{
								OFFSET 2.79874 -0.00000 0.00000
								CHANNELS 3 Zrotation Yrotation Xrotation
								JOINT LeftFingerBase
								{
									OFFSET 0 0 0
									CHANNELS 3 Zrotation Yrotation Xrotation
									JOINT LeftHandIndex1
									{
										OFFSET 0.57340 -0.00000 0.00000
										CHANNELS 3 Zrotation Yrotation Xrotation
										End Site
										{
											OFFSET 0.46229 -0.00000 0.00000
										}
									}
								}
								JOINT LThumb
								{
									OFFSET 0 0 0
									CHANNELS 3 Zrotation Yrotation Xrotation
									End Site
									{
										OFFSET 0.46935 -0.00000 0.46935
									}
								}
							}
						}
					}
				}
				JOINT RightShoulder
				{
					OFFSET 0 0 0
					CHANNELS 3 Zrotation Yrotation Xrotation
					JOINT RightArm
					{
						OFFSET -3.29079 0.52751 0.36356
						CHANNELS 3 Zrotation Yrotation Xrotation
						JOINT RightForeArm
						{
							OFFSET -4.67018 -0.00000 0.00000
							CHANNELS 3 Zrotation Yrotation Xrotation
							JOINT RightHand
							{
								OFFSET -2.65534 -0.00000 0.00000
								CHANNELS 3 Zrotation Yrotation Xrotation
								JOINT RightFingerBase
								{
									OFFSET 0 0 0
									CHANNELS 3 Zrotation Yrotation Xrotation
									JOINT RightHandIndex1
									{
										OFFSET -0.59407 -0.00000 0.00000
										CHANNELS 3 Zrotation Yrotation Xrotation
										End Site
										{
											OFFSET -0.47895 -0.00000 0.00000
										}
									}
								}
								JOINT RThumb
								{
									OFFSET 0 0 0
									CHANNELS 3 Zrotation Yrotation Xrotation
									End Site
									{
										OFFSET -0.48627 -0.00000 0.48627
									}
								}
							}
						}
					}
				}
			}
		}
	}
}
MOTION
Frames: 10
Frame Time: .0083333
4.3323 16.8249 23.5164 540.3660 5.8758 -147.1650 0.0000 0.0000 0.0000 4.1057 -28.6649 -57.0013 0.9971 6.3547 17.8170 -1.6059 21.7532 -9.0344 0.6417 -5.1248 -14.2649 0.0000 0.0000 0.0000 20.3394 16.8383 -29.9351 -2.4507 -9.7476 28.1633 -1.4707 1.9072 -22.3924 -0.2870 3.4451 -9.5205 3.3477 -4.0490 -22.5618 2.2207 -1.3548 -17.0691 0.0980 1.1077 -6.4658 -16.9860 -13.0281 -7.5542 4.5307 -15.4681 25.6314 2.3899 -7.8011 11.3521 -0.0000 0.0000 0.0000 -81.4639 22.9957 -9.8267 17.9792 -28.1306 -4.5394 -0.0000 0.0000 -14.0619 27.6880 37.6181 17.7603 -7.1250 0.0000 -0.0000 -10.3464 70.7677 -6.3829 -0.0000 0.0000 0.0000 72.9180 4.6321 29.9744 -18.8178 29.1917 -4.9417 0.0000 0.0000 12.7930 -16.0851 -23.1764 6.4745 7.1250 -0.0000 -0.0000 13.5839 -53.4825 -2.8752
4.3102 16.8133 23.3821 540.2670 6.0175 -147.1770 0.0000 0.0000 0.0000 3.0335 -28.2134 -56.9595 1.0612 6.5496 18.3878 -1.4627 20.8220 -7.2708 0.6664 -5.2205 -14.5385 0.0000 0.0000 0.0000 20.1154 16.8367 -29.5559 -2.4979 -9.8342 28.4414 -1.4874 1.8332 -22.5420 -0.3299 3.6914 -10.2099 3.2122 -4.0970 -22.5982 2.2154 -1.3806 -17.1151 0.1626 1.1133 -6.4944 -17.0164 -13.0409 -7.5515 4.6188 -15.5109 25.5940 2.4187 -7.8153 11.3527 0.0000 -0.0000 0.0000 -81.4410 23.0944 -10.0309 17.8204 -27.9266 -4.4648 -0.0000 0.0000 -13.7924 27.4164 37.6227 17.5706 -7.1250 0.0000 -0.0000 -10.7339 70.6829 -6.6036 0.0000 -0.0000 0.0000 73.0836 4.5570 29.8768 -18.8607 29.2452 -4.9626 0.0000 0.0000 12.7643 -15.9757 -23.2038 6.4356 7.1250 -0.0000 -0.0000 13.7054 -53.4895 -2.9041
4.2872 16.8074 23.2480 540.0960 6.1745 -147.1870 0.0000 0.0000 0.0000 2.2208 -28.0278 -56.9228 1.1255 6.7386 18.9434 -1.3639 20.2353 -5.5510 0.6614 -5.2015 -14.4841 0.0000 0.0000 0.0000 19.7934 16.8534 -29.2142 -2.5530 -9.9336 28.7618 -1.4960 1.7207 -22.6372 -0.3761 3.9387 -10.9044 2.9917 -4.1702 -22.6175 2.2012 -1.4220 -17.1748 0.2622 1.1196 -6.5425 -17.0467 -13.0495 -7.5254 4.7140 -15.5529 25.5397 2.4520 -7.8289 11.3430 0.0000 0.0000 0.0000 -81.4356 23.1785 -10.2422 17.6589 -27.7182 -4.3894 -0.0000 0.0000 -13.4265 27.1189 37.5914 17.3499 -7.1250 0.0000 -0.0000 -11.1132 70.5549 -6.8072 0.0000 0.0000 0.0000 73.2436 4.4238 29.7722 -18.9045 29.2999 -4.9840 0.0000 0.0000 12.7333 -15.8834 -23.2519 6.4092 7.1250 -0.0000 -0.0000 13.8193 -53.5201 -2.9393
4.2639 16.8066 23.1140 539.8490 6.3380 -147.1890 0.0000 0.0000 0.0000 1.5979 -28.0644 -56.8805 1.1856 6.9101 19.4492 -1.2935 19.9086 -4.0158 0.6362 -5.1032 -14.2030 0.0000 0.0000 0.0000 19.3639 16.9143 -28.9286 -2.6219 -10.0563 29.1591 -1.4978 1.5448 -22.6975 -0.4247 4.1827 -11.5912 2.6803 -4.2739 -22.6240 2.1794 -1.4844 -17.2493 0.4007 1.1254 -6.6087 -17.0792 -13.0573 -7.4953 4.8116 -15.5946 25.4817 2.4868 -7.8423 11.3315 0.0000 0.0000 0.0000 -81.4513 23.2466 -10.4571 17.5025 -27.5154 -4.3169 -0.0000 0.0000 -12.9994 26.8203 37.5150 17.1127 -7.1250 0.0000 -0.0000 -11.4386 70.3830 -6.9645 0.0000 0.0000 0.0000 73.3988 4.2300 29.6559 -18.9466 29.3523 -5.0047 0.0000 0.0000 12.7110 -15.8194 -23.3460 6.4064 7.1250 -0.0000 -0.0000 13.9263 -53.6013 -2.9907
4.2408 16.8082 22.9804 539.5320 6.4938 -147.1810 0.0000 0.0000 0.0000 1.0191 -28.2026 -56.8387 1.2428 7.0688 19.9192 -1.2231 19.6120 -2.7182 0.6010 -4.9626 -13.8020 0.0000 0.0000 0.0000 18.8398 17.0286 -28.7192 -2.7132 -10.2156 29.6778 -1.4951 1.2997 -22.7426 -0.4741 4.4158 -12.2494 2.2860 -4.4052 -22.6200 2.1467 -1.5661 -17.3344 0.5703 1.1307 -6.6876 -17.1126 -13.0702 -7.4756 4.9135 -15.6429 25.4289 2.5213 -7.8581 11.3253 -0.0000 0.0000 0.0000 -81.4781 23.2876 -10.6537 17.3578 -27.3271 -4.2503 -0.0000 0.0000 -12.5503 26.5327 37.4151 16.8759 -7.1250 0.0000 -0.0000 -11.7187 70.1925 -7.0870 -0.0000 0.0000 0.0000 73.5621 3.9814 29.4866 -18.9710 29.3826 -5.0166 0.0000 0.0000 12.7344 -15.7980 -23.4003 6.4113 7.1250 -0.0000 -0.0000 13.9726 -53.6509 -3.0180
4.2182 16.8089 22.8472 539.1700 6.6251 -147.1640 0.0000 0.0000 0.0000 0.3298 -28.2952 -56.8110 1.3033 7.2323 20.4055 -1.1315 19.1161 -1.7180 0.5657 -4.8171 -13.3875 0.0000 0.0000 0.0000 18.2580 17.1866 -28.5989 -2.8344 -10.4221 30.3546 -1.4902 1.0064 -22.7868 -0.5232 4.6357 -12.8725 1.8338 -4.5540 -22.6044 2.1024 -1.6611 -17.4211 0.7574 1.1352 -6.7703 -17.1506 -13.0966 -7.4888 5.0254 -15.7077 25.3934 2.5547 -7.8801 11.3356 -0.0000 -0.0000 0.0000 -81.5026 23.2849 -10.8070 17.2272 -27.1563 -4.1905 -0.0000 0.0000 -12.1095 26.3060 37.3178 16.6834 -7.1250 0.0000 -0.0000 -11.9161 70.0246 -7.1631 -0.0000 -0.0000 0.0000 73.7328 3.6684 29.2605 -18.9880 29.4038 -5.0250 0.0000 0.0000 12.7875 -15.8185 -23.3945 6.4185 7.1250 -0.0000 -0.0000 13.9495 -53.6490 -3.0122
4.1964 16.8059 22.7143 538.7950 6.7184 -147.1550 0.0000 0.0000 0.0000 -0.5954 -28.2069 -56.8068 1.3763 7.4240 20.9776 -1.0088 18.2707 -0.9986 0.5443 -4.7268 -13.1309 0.0000 0.0000 0.0000 17.6755 17.3463 -28.5639 -2.9907 -10.6799 31.2078 -1.4833 0.7136 -22.8197 -0.5711 4.8395 -13.4514 1.3605 -4.7053 -22.5684 2.0484 -1.7612 -17.4964 0.9455 1.1373 -6.8480 -17.1951 -13.1398 -7.5361 5.1518 -15.7953 25.3697 2.5878 -7.9109 11.3619 -0.0000 -0.0000 0.0000 -81.5201 23.2258 -10.9079 17.1137 -27.0075 -4.1389 -0.0000 0.0000 -11.6926 26.1046 37.2199 16.5091 -7.1250 0.0000 -0.0000 -12.0775 69.8647 -7.2180 -0.0000 -0.0000 0.0000 73.9225 3.3134 28.9256 -18.9750 29.3876 -5.0186 0.0000 0.0000 12.9221 -15.8691 -23.3024 6.4162 7.1250 -0.0000 -0.0000 13.8566 -53.5673 -2.9637
4.1752 16.7985 22.5818 538.4390 6.7679 -147.1750 0.0000 0.0000 0.0000 -1.7898 -27.8743 -56.8338 1.4703 7.6624 21.6933 -0.8616 17.0623 -0.5161 0.5314 -4.6712 -12.9731 0.0000 0.0000 0.0000 17.1430 17.4668 -28.5947 -3.1827 -10.9851 32.2296 -1.4730 0.4747 -22.8123 -0.6165 5.0249 -13.9797 0.9000 -4.8413 -22.4996 1.9855 -1.8555 -17.5454 1.1186 1.1359 -6.9113 -17.2503 -13.2002 -7.6116 5.3069 -15.9109 25.3366 2.6258 -7.9524 11.3973 0.0000 0.0000 0.0000 -81.5245 23.0965 -10.9359 17.0194 -26.8833 -4.0961 -0.0000 0.0000 -11.3208 25.9521 37.1281 16.3712 -7.1250 0.0000 -0.0000 -12.1791 69.7268 -7.2418 0.0000 0.0000 0.0000 74.1301 2.9249 28.4799 -18.9389 29.3427 -5.0009 0.0000 0.0000 13.1203 -15.9319 -23.1259 6.3970 7.1250 -0.0000 -0.0000 13.7136 -53.4046 -2.8771
4.1543 16.7877 22.4496 538.1320 6.7758 -147.2450 0.0000 0.0000 0.0000 -3.2024 -27.3041 -56.8834 1.5898 7.9535 22.5729 -0.7061 15.5522 -0.2867 0.5200 -4.6217 -12.8327 0.0000 0.0000 0.0000 16.7039 17.5038 -28.6623 -3.4077 -11.3275 33.3924 -1.4562 0.3335 -22.7249 -0.6624 5.2053 -14.4952 0.4821 -4.9495 -22.3846 1.9228 -1.9387 -17.5573 1.2716 1.1284 -6.9553 -17.3187 -13.2732 -7.7009 5.4854 -16.0483 25.2718 2.6692 -8.0034 11.4297 0.0000 0.0000 0.0000 -81.5319 22.8954 -10.9084 16.9461 -26.7866 -4.0630 -0.0000 0.0000 -10.9953 25.8197 37.0390 16.2486 -7.1250 0.0000 -0.0000 -12.2566 69.5982 -7.2532 0.0000 0.0000 0.0000 74.3390 2.5100 27.9640 -18.8878 29.2790 -4.9758 0.0000 0.0000 13.3501 -15.9922 -22.9111 6.3663 7.1250 -0.0000 -0.0000 13.5571 -53.2031 -2.7759
4.1329 16.7751 22.3175 537.8840 6.7506 -147.3730 0.0000 0.0000 0.0000 -4.7234 -26.5699 -56.9365 1.7330 8.2863 23.5872 -0.5627 13.8933 -0.3398 0.5109 -4.5816 -12.7190 0.0000 0.0000 0.0000 16.3693 17.4358 -28.7494 -3.6606 -11.6945 34.6596 -1.4286 0.3060 -22.5152 -0.7099 5.3847 -15.0091 0.1201 -5.0252 -22.2196 1.8666 -2.0081 -17.5314 1.4047 1.1143 -6.9819 -17.4062 -13.3515 -7.7770 5.6888 -16.2007 25.1501 2.7223 -8.0622 11.4443 0.0000 -0.0000 0.0000 -81.5591 22.6401 -10.8285 16.8992 -26.7248 -4.0419 -0.0000 0.0000 -10.7276 25.6826 36.8984 16.1049 -7.1250 0.0000 -0.0000 -12.2829 69.4183 -7.2195 0.0000 -0.0000 0.0000 74.5336 2.0704 27.4234 -18.8289 29.2056 -4.9471 0.0000 0.0000 13.5805 -16.0201 -22.7598 6.3384 7.1250 -0.0000 -0.0000 13.4624 -53.0583 -2.7078
